<?xml version="1.0" encoding="utf-8"?>
<!-- Generator: Adobe Illustrator 19.0.0, SVG Export Plug-In . SVG Version: 6.00 Build 0)  -->
<svg version="1.1" id="Layer_1" xmlns="http://www.w3.org/2000/svg" xmlns:xlink="http://www.w3.org/1999/xlink" x="0px" y="0px"
	 viewBox="0 0 107 88" style="enable-background:new 0 0 107 88;" xml:space="preserve">
<style type="text/css">
	.st0{fill:#A3A3A3;stroke:#000000;stroke-miterlimit:10;}
	.st1{fill:#333333;stroke:#000000;stroke-miterlimit:10;}
	.st2{fill:#FFFFFF;}
	.st3{fill:#B8DD2F;}
	.st4{fill:#F9436A;}
	.st5{fill:#DB9231;}
	.st6{fill:#969696;stroke:#000000;stroke-miterlimit:10;}
	.st7{fill:#575759;}
</style>
<path id="XMLID_2_" class="st0" d="M89,67H15.5c-2.2,0-4-1.8-4-4V15.5c0-2.2,1.8-4,4-4H89c2.2,0,4,1.8,4,4V63C93,65.2,91.2,67,89,67
	z"/>
<path id="XMLID_3_" class="st1" d="M86.7,65.1H17.8c-2.2,0-4-1.8-4-4V17.4c0-2.2,1.8-4,4-4h68.9c2.2,0,4,1.8,4,4v43.7
	C90.7,63.3,88.9,65.1,86.7,65.1z"/>
<g id="XMLID_4_">
	<g id="XMLID_35_">
		<path class="st2" d="M19,20c5.3,0,10.7,0,16,0c1.9,0,1.9-3,0-3c-5.3,0-10.7,0-16,0C17.1,17,17.1,20,19,20L19,20z"/>
	</g>
</g>
<g id="XMLID_8_">
	<g id="XMLID_49_">
		<path class="st3" d="M22,24c5.3,0,10.7,0,16,0c1.9,0,1.9-3,0-3c-5.3,0-10.7,0-16,0C20.1,21,20.1,24,22,24L22,24z"/>
	</g>
</g>
<g id="XMLID_9_">
	<g id="XMLID_37_">
		<path class="st4" d="M27,28c5.3,0,10.7,0,16,0c1.9,0,1.9-3,0-3c-5.3,0-10.7,0-16,0C25.1,25,25.1,28,27,28L27,28z"/>
	</g>
</g>
<g id="XMLID_10_">
	<g id="XMLID_38_">
		<path class="st3" d="M22,32c5.3,0,10.7,0,16,0c1.9,0,1.9-3,0-3c-5.3,0-10.7,0-16,0C20.1,29,20.1,32,22,32L22,32z"/>
	</g>
</g>
<g id="XMLID_44_">
	<g id="XMLID_40_">
		<path class="st2" d="M27,37c5.3,0,10.7,0,16,0c1.9,0,1.9-3,0-3c-5.3,0-10.7,0-16,0C25.1,34,25.1,37,27,37L27,37z"/>
	</g>
</g>
<g id="XMLID_26_">
	<g id="XMLID_41_">
		<path class="st4" d="M32,41c5.3,0,10.7,0,16,0c1.9,0,1.9-3,0-3c-5.3,0-10.7,0-16,0C30.1,38,30.1,41,32,41L32,41z"/>
	</g>
</g>
<g id="XMLID_11_">
	<g id="XMLID_42_">
		<path class="st2" d="M27,45c5.3,0,10.7,0,16,0c1.9,0,1.9-3,0-3c-5.3,0-10.7,0-16,0C25.1,42,25.1,45,27,45L27,45z"/>
	</g>
</g>
<g id="XMLID_51_">
	<g id="XMLID_43_">
		<path class="st5" d="M22,50c5.3,0,10.7,0,16,0c1.9,0,1.9-3,0-3c-5.3,0-10.7,0-16,0C20.1,47,20.1,50,22,50L22,50z"/>
	</g>
</g>
<g id="XMLID_39_">
	<g id="XMLID_101_">
		<path class="st4" d="M27,54c5.3,0,10.7,0,16,0c1.9,0,1.9-3,0-3c-5.3,0-10.7,0-16,0C25.1,51,25.1,54,27,54L27,54z"/>
	</g>
</g>
<g id="XMLID_13_">
	<g id="XMLID_106_">
		<path class="st5" d="M22,58c5.3,0,10.7,0,16,0c1.9,0,1.9-3,0-3c-5.3,0-10.7,0-16,0C20.1,55,20.1,58,22,58L22,58z"/>
	</g>
</g>
<path id="XMLID_1_" class="st6" d="M62,77.2H39c-1.1,0-2-0.9-2-2l3-3.2c0-1.1,0.9-5,2-5h17c1.1,0,2,3.9,2,5l3,3.2
	C64,76.3,63.1,77.2,62,77.2z"/>
<path id="XMLID_5_" class="st7" d="M43,76.8c-0.3,0-4.4-0.1-4.6-0.2c-0.7-0.3-0.9-0.7-0.9-1.5l2.9-2.9c0-1.1,0.5-4.6,1.9-4.6h17"/>
</svg>
